<svg width="44" height="44" viewBox="0 0 44 44" fill="none" xmlns="http://www.w3.org/2000/svg">
<path d="M3.66663 18.7C3.66663 16.6465 3.66663 15.6197 4.06627 14.8354C4.4178 14.1454 4.97873 13.5845 5.66866 13.233C6.453 12.8333 7.47977 12.8333 9.53329 12.8333H34.4666C36.5202 12.8333 37.5469 12.8333 38.3313 13.233C39.0212 13.5845 39.5821 14.1454 39.9337 14.8354C40.3333 15.6197 40.3333 16.6465 40.3333 18.7V32.6333C40.3333 34.6869 40.3333 35.7136 39.9337 36.498C39.5821 37.1879 39.0212 37.7488 38.3313 38.1004C37.5469 38.5 36.5202 38.5 34.4666 38.5H9.53329C7.47977 38.5 6.453 38.5 5.66866 38.1004C4.97873 37.7488 4.4178 37.1879 4.06627 36.498C3.66663 35.7136 3.66663 34.6869 3.66663 32.6333V18.7Z" fill="#F7931A" fill-opacity="0.1"/>
<path d="M14.6666 38.5V12.8333C14.6666 11.1284 14.6666 10.2759 14.854 9.5765C15.3626 7.67849 16.8451 6.19598 18.7431 5.68741C19.4425 5.5 20.295 5.5 22 5.5C23.7049 5.5 24.5574 5.5 25.2568 5.68741C27.1548 6.19598 28.6373 7.67849 29.1459 9.5765C29.3333 10.2759 29.3333 11.1284 29.3333 12.8333V38.5M9.53329 38.5H34.4666C36.5202 38.5 37.5469 38.5 38.3313 38.1004C39.0212 37.7488 39.5821 37.1879 39.9337 36.498C40.3333 35.7136 40.3333 34.6869 40.3333 32.6333V18.7C40.3333 16.6465 40.3333 15.6197 39.9337 14.8354C39.5821 14.1454 39.0212 13.5845 38.3313 13.233C37.5469 12.8333 36.5202 12.8333 34.4666 12.8333H9.53329C7.47977 12.8333 6.453 12.8333 5.66866 13.233C4.97873 13.5845 4.4178 14.1454 4.06627 14.8354C3.66663 15.6197 3.66663 16.6465 3.66663 18.7V32.6333C3.66663 34.6869 3.66663 35.7136 4.06627 36.498C4.4178 37.1879 4.97873 37.7488 5.66866 38.1004C6.453 38.5 7.47977 38.5 9.53329 38.5Z" stroke="#F7931A" stroke-width="3" stroke-linecap="round" stroke-linejoin="round"/>
</svg>
