<svg width="44" height="44" viewBox="0 0 44 44" fill="none" xmlns="http://www.w3.org/2000/svg">
<path d="M20.7204 39.6289C21.1263 39.8657 21.3292 39.9841 21.6156 40.0455C21.8379 40.0932 22.1622 40.0932 22.3845 40.0455C22.6709 39.9841 22.8738 39.8657 23.2797 39.6289C26.8511 37.5454 36.6667 31.0004 36.6667 22.0016V13.2339C36.6667 11.7681 36.6667 11.0352 36.427 10.4053C36.2152 9.84873 35.8711 9.35214 35.4243 8.95844C34.9186 8.51277 34.2324 8.25544 32.86 7.74077L23.03 4.05454C22.6489 3.91161 22.4583 3.84014 22.2622 3.81181C22.0883 3.78669 21.9117 3.78669 21.7378 3.81181C21.5418 3.84014 21.3512 3.91161 20.9701 4.05454L11.1401 7.74077C9.76767 8.25544 9.08145 8.51277 8.57575 8.95844C8.12901 9.35214 7.78488 9.84873 7.5731 10.4053C7.33337 11.0352 7.33337 11.7681 7.33337 13.2339V22.0016C7.33337 31.0005 17.149 37.5454 20.7204 39.6289Z" fill="#F7931A" fill-opacity="0.1"/>
<path d="M16.5 21.085L20.1667 24.7516L28.4167 16.5016M36.6667 22.0016C36.6667 31.0004 26.8511 37.5454 23.2797 39.6289C22.8738 39.8657 22.6709 39.9841 22.3845 40.0455C22.1622 40.0932 21.8379 40.0932 21.6156 40.0455C21.3292 39.9841 21.1263 39.8657 20.7204 39.6289C17.149 37.5454 7.33337 31.0004 7.33337 22.0016V13.2339C7.33337 11.7681 7.33337 11.0352 7.5731 10.4053C7.78488 9.84873 8.12901 9.35214 8.57575 8.95844C9.08145 8.51277 9.76767 8.25544 11.1401 7.74077L20.9701 4.05454C21.3512 3.91161 21.5418 3.84014 21.7378 3.81181C21.9117 3.78669 22.0883 3.78669 22.2622 3.81181C22.4583 3.84014 22.6489 3.91161 23.03 4.05454L32.86 7.74077C34.2324 8.25544 34.9186 8.51277 35.4243 8.95844C35.8711 9.35214 36.2152 9.84873 36.427 10.4053C36.6667 11.0352 36.6667 11.7681 36.6667 13.2339V22.0016Z" stroke="#F7931A" stroke-width="3" stroke-linecap="round" stroke-linejoin="round"/>
</svg>
