<svg width="40" height="40" viewBox="0 0 40 40" fill="none" xmlns="http://www.w3.org/2000/svg">
<path d="M30.9412 4H16.1757V23.7517H35.9922V9.13898C36.0002 6.36441 33.7249 4 30.9412 4ZM11.6412 4H9.16414C6.38048 4 4.00024 6.25986 4.00024 9.14702V11.616H11.6412V4ZM4.00024 16.2403H11.6412V23.8562H4.00024V16.2403ZM28.3593 35.992H30.8363C33.62 35.992 36.0002 33.7321 36.0002 30.8449V28.384H28.3593V35.992ZM16.1757 28.384H23.8167V36H16.1757V28.384ZM4.00024 28.384V30.853C4.00024 33.6275 6.26752 36 9.16414 36H11.6412V28.384H4.00024Z" fill="#98A2B3"/>
</svg>
