<svg width="44" height="44" viewBox="0 0 44 44" fill="none" xmlns="http://www.w3.org/2000/svg">
<path d="M32.6333 38.5009C34.6869 38.5009 35.7136 38.5009 36.498 38.1013C37.1879 37.7497 37.7488 37.1888 38.1004 36.4989C38.5 35.7145 38.5 34.6878 38.5 32.6342V20.5342C38.5 18.4807 38.5 17.454 38.1004 16.6696C37.7488 15.9797 37.1879 15.4188 36.498 15.0672C35.7136 14.6676 34.6869 14.6676 32.6333 14.6676L11.3667 14.6676C9.31314 14.6676 8.28638 14.6676 7.50204 15.0672C6.81211 15.4187 6.25118 15.9797 5.89964 16.6696C5.5 17.4539 5.5 18.4807 5.5 20.5342L5.5 32.6342C5.5 34.6878 5.5 35.7145 5.89964 36.4989C6.25118 37.1888 6.81211 37.7497 7.50203 38.1013C8.28638 38.5009 9.31314 38.5009 11.3667 38.5009H32.6333Z" fill="#F7931A" fill-opacity="0.1"/>
<path d="M31.1667 26.5842C31.1667 27.0905 30.7563 27.5009 30.25 27.5009C29.7437 27.5009 29.3333 27.0905 29.3333 26.5842C29.3333 26.078 29.7437 25.6676 30.25 25.6676C30.7563 25.6676 31.1667 26.078 31.1667 26.5842Z" fill="#F7931A" fill-opacity="0.1"/>
<path d="M29.3333 14.6676V8.25211C29.3333 6.72725 29.3333 5.96482 29.0121 5.49627C28.7315 5.0869 28.2968 4.80882 27.8076 4.72555C27.2475 4.63025 26.5553 4.94976 25.1708 5.58876L8.90819 13.0946C7.67343 13.6644 7.05604 13.9494 6.60386 14.3913C6.20411 14.782 5.89896 15.2589 5.71176 15.7856C5.5 16.3814 5.5 17.0613 5.5 18.4213V27.5009M30.25 26.5842H30.2683M5.5 20.5342L5.5 32.6342C5.5 34.6878 5.5 35.7145 5.89964 36.4989C6.25118 37.1888 6.81211 37.7497 7.50203 38.1013C8.28638 38.5009 9.31314 38.5009 11.3667 38.5009H32.6333C34.6869 38.5009 35.7136 38.5009 36.498 38.1013C37.1879 37.7497 37.7488 37.1888 38.1004 36.4989C38.5 35.7145 38.5 34.6878 38.5 32.6342V20.5342C38.5 18.4807 38.5 17.454 38.1004 16.6696C37.7488 15.9797 37.1879 15.4188 36.498 15.0672C35.7136 14.6676 34.6869 14.6676 32.6333 14.6676L11.3667 14.6676C9.31314 14.6676 8.28638 14.6676 7.50204 15.0672C6.81211 15.4187 6.25118 15.9797 5.89964 16.6696C5.5 17.4539 5.5 18.4807 5.5 20.5342ZM31.1667 26.5842C31.1667 27.0905 30.7563 27.5009 30.25 27.5009C29.7437 27.5009 29.3333 27.0905 29.3333 26.5842C29.3333 26.078 29.7437 25.6676 30.25 25.6676C30.7563 25.6676 31.1667 26.078 31.1667 26.5842Z" stroke="#F7931A" stroke-width="3" stroke-linecap="round" stroke-linejoin="round"/>
</svg>
